<?xml version="1.0" encoding="iso-8859-1"?>
<!-- Uploaded to: SVG Repo, www.svgrepo.com, Generator: SVG Repo Mixer Tools -->
<svg version="1.1" id="Layer_1" xmlns="http://www.w3.org/2000/svg" xmlns:xlink="http://www.w3.org/1999/xlink" 
	 viewBox="0 0 512 512" xml:space="preserve">
<rect style="fill:#F2F2F4;" width="512" height="512"/>
<rect x="256" style="fill:#DFDFE1;" width="256" height="512"/>
<path style="fill:#88888F;" d="M274.286,137.143c-55.455,0-100.571,45.116-100.571,100.571c0,17.781,4.657,34.487,12.787,48.995
	l-59.61,59.611l38.789,38.789l59.611-59.61c14.506,8.128,31.212,12.785,48.993,12.785c55.455,0,100.571-45.116,100.571-100.571
	S329.741,137.143,274.286,137.143z M274.286,283.429c-25.207,0-45.714-20.507-45.714-45.714c0-25.207,20.507-45.714,45.714-45.714
	C299.493,192,320,212.507,320,237.714C320,262.921,299.493,283.429,274.286,283.429z"/>
<path style="fill:#56545A;" d="M274.286,137.143c-6.246,0-12.352,0.602-18.286,1.697v56.989c5.603-2.456,11.785-3.829,18.286-3.829
	C299.493,192,320,212.507,320,237.714c0,25.207-20.507,45.714-45.714,45.714c-6.501,0-12.683-1.373-18.286-3.829v57.002
	c5.932,1.097,12.041,1.684,18.286,1.684c55.455,0,100.571-45.116,100.571-100.571S329.741,137.143,274.286,137.143z"/>
</svg>